<?xml version="1.0" encoding="UTF-8" standalone="no"?>
<svg
   enable-background="new 0 0 1150.9 517"
   version="1.1"
   viewBox="0 0 1260.8999 570"
   xml:space="preserve"
   id="svg2"
   inkscape:version="1.3.2 (1:1.3.2+202311252150+091e20ef0f)"
   sodipodi:docname="mag_logo_mascot_light.svg"
   width="1260.9"
   height="570"
   inkscape:export-filename="mag_logo_mascot_light.png"
   inkscape:export-xdpi="96"
   inkscape:export-ydpi="96"
   xmlns:inkscape="http://www.inkscape.org/namespaces/inkscape"
   xmlns:sodipodi="http://sodipodi.sourceforge.net/DTD/sodipodi-0.dtd"
   xmlns="http://www.w3.org/2000/svg"
   xmlns:svg="http://www.w3.org/2000/svg"
   xmlns:rdf="http://www.w3.org/1999/02/22-rdf-syntax-ns#"
   xmlns:cc="http://creativecommons.org/ns#"
   xmlns:dc="http://purl.org/dc/elements/1.1/"><sodipodi:namedview
     pagecolor="#ffffff"
     bordercolor="#666666"
     borderopacity="1"
     objecttolerance="10"
     gridtolerance="10"
     guidetolerance="10"
     inkscape:pageopacity="0"
     inkscape:pageshadow="2"
     inkscape:window-width="1920"
     inkscape:window-height="1015"
     id="namedview75"
     showgrid="false"
     inkscape:zoom="0.50569119"
     inkscape:cx="616.97733"
     inkscape:cy="643.67346"
     inkscape:window-x="1920"
     inkscape:window-y="724"
     inkscape:window-maximized="1"
     inkscape:current-layer="layer3"
     fit-margin-left="62.25"
     fit-margin-right="62.25"
     fit-margin-top="62.25"
     fit-margin-bottom="62.25"
     inkscape:showpageshadow="0"
     inkscape:pagecheckerboard="1"
     inkscape:deskcolor="#d1d1d1"
     showguides="true"><inkscape:grid
       id="grid1"
       units="px"
       originx="69.323784"
       originy="-62.25"
       spacingx="0.99999995"
       spacingy="1"
       empcolor="#e50000"
       empopacity="0.30196078"
       color="#e50000"
       opacity="0.14901961"
       empspacing="5"
       dotted="true"
       gridanglex="30"
       gridanglez="30"
       visible="false" /><sodipodi:guide
       position="329.32377,422.24999"
       orientation="1,0"
       id="guide1"
       inkscape:locked="false" /></sodipodi:namedview><metadata
     id="metadata4"><rdf:RDF><cc:Work
         rdf:about=""><dc:format>image/svg+xml</dc:format><dc:type
           rdf:resource="http://purl.org/dc/dcmitype/StillImage" /></cc:Work></rdf:RDF></metadata><defs
     id="defs6"><clipPath
       id="e"><path
         d="m 280.17,136.33 -21.5,-21.584 h 61 v 21.584 z"
         id="path9"
         inkscape:connector-curvature="0" /></clipPath><linearGradient
       id="f"
       x2="1"
       gradientTransform="matrix(37.935819,29.638391,-29.638391,37.935819,295.72019,166.19562)"
       gradientUnits="userSpaceOnUse"><stop
         stop-color="#0c542a"
         offset="0"
         id="stop12" /><stop
         stop-color="#0c542a"
         offset=".21472"
         id="stop14" /><stop
         stop-color="#25af64"
         offset=".57995"
         id="stop16" /><stop
         stop-color="#25af64"
         offset=".84663"
         id="stop18" /><stop
         stop-color="#25af64"
         offset="1"
         id="stop20" /></linearGradient></defs><style
     type="text/css"
     id="style22">
	.st0{fill:#24AF63;}
	.st1{font-family:'Maven Pro';}
	.st1{font-weight:'bold';}
	.st2{font-size:209.8672px;}
	.st3{fill:#21AF62;}
	.st4{fill:#ECDC86;}
	.st5{fill:#A0918F;}
	.st6{fill:#3F2B29;}
	.st7{fill:#396E35;}
	.st8{fill:url(#d);}
</style><linearGradient
     id="d"
     x1="295.45999"
     x2="333.34"
     y1="150.75"
     y2="180.35001"
     gradientUnits="userSpaceOnUse"><stop
       stop-color="#0D552B"
       offset=".2147"
       id="stop41" /><stop
       stop-color="#176837"
       offset=".311"
       id="stop43" /><stop
       stop-color="#1F8448"
       offset=".4609"
       id="stop45" /><stop
       stop-color="#239A56"
       offset=".604"
       id="stop47" /><stop
       stop-color="#24A860"
       offset=".7361"
       id="stop49" /><stop
       stop-color="#25AF64"
       offset=".8466"
       id="stop51" /></linearGradient><g
     inkscape:groupmode="layer"
     id="layer2"
     inkscape:label="Icon"
     style="display:inline"
     transform="translate(74.699938,-62.25)" /><g
     inkscape:groupmode="layer"
     id="layer3"
     inkscape:label="Text"
     style="display:inline"
     transform="translate(74.699938,-62.25)">


<g
   id="g1"
   transform="translate(-1.4173932e-7,58.154032)"><g
     id="g4209"
     style="display:inline"><path
       style="fill:#24af63"
       inkscape:connector-curvature="0"
       id="path24"
       d="m 1084.1,163.75 v 3.6 c -0.1,0 -0.1,0 -0.2,0.1 l -1.8,-1.5 c -4,-3.4 -8.3,-6.4 -13.1,-8.8 -0.8,-0.4 -1.6,-0.9 -2.5,-1.1 -0.1,-0.1 -0.2,-0.2 -0.3,-0.2 -1.8,-0.7 -3.6,-1.3 -5.5,-1.8 -4.1,-0.9 -8.2,-1 -12.3,-0.2 -5.3,1.1 -10,3.4 -14.5,6.4 -4.4,3 -8.4,6.5 -12.1,10.2 -0.7,0.7 -0.7,0.7 -1.1,-0.2 -2,-4.1 -4.2,-8.1 -6.9,-11.8 -2.1,-2.8 -4.4,-5.4 -7.4,-7.2 -3,-1.9 -6.3,-2.6 -9.8,-1.7 -4.3,1 -7.8,3.6 -11.1,6.4 -2,1.5 -3.8,3.3 -5.6,5 -1.7,1.5 -3.3,3 -5,4.5 -0.3,0.3 -0.5,0.3 -0.8,0 -1.7,-1.8 -3.5,-3.4 -5.6,-4.5 -3.1,-1.7 -6.3,-1.9 -9.6,-0.8 -2.8,0.9 -5.2,2.4 -7.7,4 -1,0.6 -1.9,1.3 -2.9,1.8 v -0.2 c 0.1,-0.2 0.1,-0.4 0.1,-0.6 0.2,-4.4 0.5,-8.9 1.2,-13.3 1,-6.1 2.5,-12 5.2,-17.5 2,-4.1 4.7,-7.9 8.1,-11 4.5,-4.1 9.8,-6.7 15.6,-8.3 6.3,-1.8 12.7,-2.6 19.2,-2.9 2.6,-0.1 5.1,-0.2 7.7,-0.3 1.3,0.5 2.6,0.8 3.9,1.2 1.9,0.6 3.8,1.2 5.7,1.7 1,0.4 1.9,0.7 2.9,1.1 3.7,1.3 7.3,3 10.4,5.5 0.8,0.6 1.6,1.3 2.4,2 -0.2,-0.6 -0.4,-1.1 -0.6,-1.7 -1.4,-3.7 -3.5,-6.7 -6.9,-8.8 -1.4,-0.9 -2.9,-1.5 -4.4,-2.3 0.1,0 0.3,0 0.4,-0.1 4.5,-0.8 9.1,-1.2 13.7,-1.4 3.9,-0.2 7.9,-0.1 11.8,0.3 4.6,0.5 9.1,1.4 13.4,3 6.4,2.4 11.9,6.1 16.2,11.5 3.7,4.7 6.1,10.1 7.6,15.9 1.5,5.7 2.1,11.6 2.3,17.5 -0.1,2.1 -0.1,4.3 -0.1,6.5 z"
       class="st0" /><path
       style="fill:#ecdc86"
       inkscape:connector-curvature="0"
       id="path26"
       d="m 1084.1,157.15 h 0.1 v 6.6 h -0.1 z"
       class="st4" /><path
       style="fill:#a0918f"
       inkscape:connector-curvature="0"
       id="path28"
       d="m 1047.6,62.25 v 0.1 h -4.5 v -0.1 z"
       class="st5" /><path
       style="fill:#24af63"
       inkscape:connector-curvature="0"
       id="path30"
       d="m 1050.5,250.65 c 2.5,-1 4.9,-2.3 7.3,-3.6 2.8,-1.7 5.4,-3.5 8,-5.4 2.2,-1.6 4.3,-3.3 6.4,-5.1 l 3.6,-3 c 0.2,-0.2 0.2,-0.1 0.3,0.1 0.4,1.6 0.7,3.3 1.1,5 0.5,2.3 0.8,4.6 1.1,6.9 0.3,2.7 0.4,5.3 0.2,8 -0.2,3.3 -0.8,6.6 -2,9.7 -0.7,1.9 -1.6,3.7 -2.7,5.4 -1.4,2.2 -3,4.2 -5,5.9 -2.3,2.1 -4.9,3.9 -7.7,5.4 -3.7,2.1 -7.7,3.6 -11.8,4.8 -3.9,1.2 -7.9,2 -11.9,2.7 -1.1,0.2 -2.2,0.4 -3.3,0.4 -2.3,-0.1 -4.6,-0.6 -6.8,-1.4 -3.3,-1.3 -6.2,-3.3 -9.5,-4.8 -1.8,-0.8 -3.6,-1.4 -5.5,-1.5 -2.5,-0.2 -4.6,0.7 -6.4,2.4 l -3.9,3.9 c -2.2,2.2 -4.8,3.7 -7.9,4.2 -2.1,0.3 -4.1,0.2 -6.2,-0.1 -2.9,-0.4 -5.7,-1.1 -8.4,-1.9 -4,-1.3 -7.7,-3.1 -11.1,-5.7 -3.2,-2.4 -5.7,-5.4 -7.8,-8.8 -2.1,-3.5 -3.3,-7.2 -4.2,-11.1 -0.4,-1.7 -0.6,-3.5 -0.8,-5.2 -0.3,-2.5 -0.4,-4.9 -0.3,-7.4 0.1,-3.5 0.4,-6.9 0.9,-10.4 0.4,0.4 0.8,0.7 1.1,1 2.2,2 4.7,3.8 7.3,5.4 2.9,1.7 6.1,3.1 9.4,4 2.2,0.6 4.5,1 6.8,1.1 1.9,0.2 3.8,0.2 5.7,0.1 2.2,-0.1 4.5,-0.3 6.7,-0.9 0.3,0 0.6,0 0.8,-0.1 2,-0.4 4,-0.9 6,-1.5 2.3,-0.7 4.5,-1.4 6.7,-2.2 2.1,-0.8 4.3,-1.7 6.4,-2.6 0.6,-0.3 1,-0.2 1.5,0.2 3.5,2.7 7.3,5 11.4,6.7 4.6,1.8 9.3,2.7 14.2,2.3 3.6,-0.7 7,-1.6 10.3,-2.9 z"
       class="st0" /><path
       style="fill:#ecdc86"
       inkscape:connector-curvature="0"
       id="path32"
       d="m 1050.5,250.65 c -3.3,1.3 -6.7,2.2 -10.2,2.5 -4.9,0.4 -9.6,-0.5 -14.2,-2.3 -4.1,-1.6 -7.9,-3.9 -11.4,-6.7 -0.5,-0.4 -0.9,-0.5 -1.5,-0.2 -2.1,0.9 -4.2,1.8 -6.4,2.6 -2.2,0.8 -4.4,1.6 -6.7,2.2 -2,0.6 -4,1 -6,1.5 -0.3,0.1 -0.6,0.1 -0.8,0.1 0.7,-0.8 1.4,-1.6 2.1,-2.4 2.8,-3.2 4.8,-6.9 5.9,-11.1 1.6,-5.6 3.2,-11.3 4.6,-17 1,-4.2 1.8,-8.4 2.4,-12.7 0.4,-3.1 1,-14.9 0.8,-17.7 -0.5,-8.6 -2.4,-16.8 -5.9,-24.7 -2.1,-4.7 -5.7,-7.9 -10.7,-9.2 -2.2,-0.6 -4.4,-0.4 -6.5,0.3 -0.2,0.1 -0.3,0.2 -0.5,0.1 3.3,-2.8 6.7,-5.4 11.1,-6.4 3.5,-0.8 6.8,-0.2 9.8,1.7 3,1.9 5.3,4.4 7.4,7.2 2.7,3.7 4.9,7.7 6.9,11.8 0.4,0.9 0.4,0.9 1.1,0.2 3.7,-3.8 7.7,-7.3 12.1,-10.2 4.4,-3 9.2,-5.3 14.5,-6.4 4.1,-0.8 8.2,-0.7 12.3,0.2 1.9,0.4 3.7,1 5.5,1.8 0.1,0.1 0.3,0.1 0.3,0.2 -5.3,0.1 -9.8,2.1 -13.9,5.2 -2,1.5 -3.8,3.2 -5.2,5.3 -1.1,1.7 -2.1,3.6 -2.9,5.5 -1.8,3.8 -3.3,7.8 -4.4,11.9 -0.9,3.5 -1.5,7.1 -1.8,10.7 -0.2,2.8 -0.3,5.6 -0.2,8.4 0.1,3.4 0.5,6.8 0.9,10.3 0.7,5.7 1.7,11.4 2.7,17.1 0.5,3.1 0.9,6.3 1.5,9.5 0.7,4.6 3.3,8 7,10.6 0,-0.1 0.2,0 0.3,0.1 z"
       class="st4" /><path
       style="fill:#3f2b29"
       inkscape:connector-curvature="0"
       id="path34"
       d="m 1043.1,62.35 h 4.5 c 3.6,0.2 7.2,0.8 10.6,2 2.7,0.9 3.3,2.7 1.7,5 -1.1,1.6 -2.7,2.8 -4.4,3.9 -2.1,1.4 -4.4,2.6 -6.9,3.5 -2.5,1 -4.9,0 -6.5,-2.5 -0.5,-0.8 -0.9,-1.6 -1.1,-2.5 -0.1,-0.3 -0.2,-0.4 -0.5,-0.4 -5.6,-1 -10.6,0.3 -14.7,4.3 -3.4,3.2 -5.4,7.3 -6.8,11.7 -1.3,4 -1.9,8 -2.1,12.2 -0.2,3.7 0.1,7.4 0.6,11 0.1,0.6 0.3,1.2 0.3,1.9 0.1,0.8 -0.2,1.5 -0.8,1.9 -0.7,0.5 -1.5,0.4 -2.3,0.4 -1.9,-0.6 -3.8,-1.2 -5.7,-1.7 v -1.3 c 0,-2 0,-3.9 0.1,-5.9 0.4,-7.7 1.6,-15.3 4.6,-22.5 2.2,-5.4 5.4,-10.1 9.9,-13.8 3.7,-3.1 7.9,-5.1 12.6,-6.2 2.4,-0.6 4.6,-0.9 6.9,-1 z"
       class="st6" /><path
       style="fill:#396e35"
       inkscape:connector-curvature="0"
       id="path36"
       d="m 1014.8,114.65 c 0.8,0 1.6,0.1 2.3,-0.4 0.7,-0.5 0.9,-1.2 0.8,-1.9 -0.1,-0.6 -0.2,-1.3 -0.3,-1.9 0.4,0 0.7,-0.1 1.1,-0.1 1.4,0.8 2.9,1.5 4.4,2.3 3.4,2.1 5.5,5.1 6.9,8.8 0.2,0.6 0.4,1.1 0.6,1.7 -0.8,-0.7 -1.6,-1.4 -2.4,-2 -3.2,-2.4 -6.7,-4.1 -10.4,-5.5 -1.1,-0.3 -2,-0.6 -3,-1 z"
       class="st7" /><path
       style="fill:#396e35"
       inkscape:connector-curvature="0"
       id="path38"
       d="m 1009.1,111.65 v 1.3 c -1.3,-0.4 -2.6,-0.7 -3.9,-1.2 1.4,-0.1 2.7,-0.1 3.9,-0.1 z"
       class="st7" /></g><text
     x="48.898899"
     y="241.24541"
     font-size="209.87px"
     font-weight="bold"
     id="text53"
     style="font-weight:bold;font-size:209.87px;line-height:0%;font-family:'Maven Pro'"><tspan
       class="st0 st1 st2"
       x="48.898899"
       y="241.24541"
       font-size="209.87px"
       font-weight="bold"
       id="tspan55"
       style="font-weight:bold;font-size:209.867px;font-family:'Maven Pro';fill:#24af63">nf-<tspan
   id="tspan57"
   style="fill:#000000" /></tspan></text><text
     x="357.14139"
     y="241.24541"
     font-size="209.87px"
     font-weight="bold"
     id="text69"
     style="font-weight:bold;font-size:209.87px;line-height:0%;font-family:'Maven Pro'"><tspan
       class="st0 st1 st2"
       x="357.14139"
       y="241.24541"
       font-size="209.87px"
       font-weight="bold"
       id="tspan71"
       style="font-weight:bold;font-size:209.867px;font-family:'Maven Pro';fill:#24af63"><tspan
         id="tspan73"
         style="fill:#000000">core/</tspan></tspan></text><text
     x="43.155258"
     y="457.04541"
     font-weight="bold"
     id="text59"
     style="font-weight:bold;line-height:0%;font-family:'Maven Pro'"><tspan
       class="st1 st2"
       x="351.05524"
       y="457.04541"
       font-size="209.87px"
       font-weight="bold"
       id="tspan61"
       style="font-weight:bold;font-size:209.867px;font-family:'Maven Pro'">mag</tspan></text><path
     d="m 300.43725,166.1155 -21.53224,21.61638 h 61.0915 V 166.1155 Z"
     id="path67"
     inkscape:connector-curvature="0"
     style="fill:url(#f)" /><g
     id="g133-0-9"
     transform="matrix(4.4854147,0,0,4.4854147,-13629.642,-6539.8628)"><path
       style="fill:#1a1a1a;fill-opacity:1;stroke:none;stroke-width:0.264583;stroke-linejoin:round;stroke-miterlimit:0.5;stroke-dasharray:none;stroke-opacity:1;paint-order:stroke markers fill"
       d="m 3022.0042,1586.0203 36.7459,-42.6904 8.1912,-4.0655 -3.3291,3.3228 z"
       id="path107-4-2"
       sodipodi:nodetypes="ccccc" /><path
       style="fill:#ffffff;fill-opacity:1;stroke:none;stroke-width:0.264583;stroke-linejoin:round;stroke-miterlimit:0.5;stroke-dasharray:none;stroke-opacity:1;paint-order:stroke markers fill"
       d="m 3052.42,1554.0971 15.4931,-6.4338 5.0736,-1.4266 1.7038,-5.8283 -8.2112,-0.7326 z"
       id="path111-8-5"
       sodipodi:nodetypes="cccccc" /><path
       style="fill:#1a1a1a;fill-opacity:1;stroke:none;stroke-width:0.264583;stroke-linejoin:round;stroke-miterlimit:0.5;stroke-dasharray:none;stroke-opacity:1;paint-order:stroke markers fill"
       d="m 3066.3579,1539.6686 12.6051,-9.9288 9.2529,0.1108 6.3243,4.6646 -0.067,5.9472 -5.579,6.5278 -10.7657,-4.3057 -3.3864,-2.2645 z"
       id="path108-8-7"
       sodipodi:nodetypes="ccccccccc" /><path
       style="fill:#1a1a1a;fill-opacity:1;stroke:none;stroke-width:0.264583;stroke-linejoin:round;stroke-miterlimit:0.5;stroke-dasharray:none;stroke-opacity:1;paint-order:stroke markers fill"
       d="m 3078.7688,1542.9271 0.2521,14.171 8.9959,10.7838 3.8516,-6.3642 -2.9388,-15.01 z"
       id="path109-89-4"
       sodipodi:nodetypes="cccccc" /><path
       style="fill:#333333;fill-opacity:1;stroke:none;stroke-width:0.264583;stroke-linejoin:round;stroke-miterlimit:0.5;stroke-dasharray:none;stroke-opacity:1;paint-order:stroke markers fill"
       d="m 3093.5295,1541.2096 -4.7621,5.2348 3.1302,15.5851 2.0696,-5.7567 -1.3049,-12.4876 z"
       id="path110-7-9"
       sodipodi:nodetypes="cccccc" /><path
       style="fill:#ffffff;fill-opacity:1;stroke:none;stroke-width:0.264583;stroke-linejoin:round;stroke-miterlimit:0.5;stroke-dasharray:none;stroke-opacity:1;paint-order:stroke markers fill"
       d="m 3072.8545,1546.661 -2.6112,7.6093 8.9815,2.9018 -0.4381,-14.0988 -4.1096,-2.6617 z"
       id="path112-7-9"
       sodipodi:nodetypes="cccccc" /><path
       style="fill:#e6e6e6;fill-opacity:1;stroke:none;stroke-width:0.264583;stroke-linejoin:round;stroke-miterlimit:0.5;stroke-dasharray:none;stroke-opacity:1;paint-order:stroke markers fill"
       d="m 3058.9601,1560.2623 11.4417,-6.1219 8.8408,3.0054 6.6244,8.466 -13.104,-5.3916 -4.6811,-0.8006 z"
       id="path113-6-4"
       sodipodi:nodetypes="ccccccc" /><path
       style="fill:#336b90;fill-opacity:1;stroke:none;stroke-width:0.264583;stroke-linejoin:round;stroke-miterlimit:0.5;stroke-dasharray:none;stroke-opacity:1;paint-order:stroke markers fill"
       d="m 3075.9727,1545.1327 -7.6304,2.2843 -15.9247,6.6739 12.6441,3.1891 5.4915,-3.1327 z"
       id="path114-4-5"
       sodipodi:nodetypes="cccccc" /><path
       style="fill:#0a365e;fill-opacity:1;stroke:none;stroke-width:0.264583;stroke-linejoin:round;stroke-miterlimit:0.5;stroke-dasharray:none;stroke-opacity:1;paint-order:stroke markers fill"
       d="m 3052.4279,1554.0877 -9.3053,9.7261 10.792,-1.1843 11.2145,-5.4786 z"
       id="path115-3-9"
       sodipodi:nodetypes="ccccc" /><path
       style="fill:#336b90;fill-opacity:1;stroke:none;stroke-width:0.264583;stroke-linejoin:round;stroke-miterlimit:0.5;stroke-dasharray:none;stroke-opacity:1;paint-order:stroke markers fill"
       d="m 3043.1436,1563.7935 -8.7713,9.2503 19.8337,-10.5325 z"
       id="path116-0-3"
       sodipodi:nodetypes="cccc" /><path
       style="fill:#999999;fill-opacity:1;stroke:none;stroke-width:0.264583;stroke-linejoin:round;stroke-miterlimit:0.5;stroke-dasharray:none;stroke-opacity:1;paint-order:stroke markers fill"
       d="m 3094.533,1534.4435 -6.3109,5.4534 6.3206,0.5425 3.6094,-2.9395 z"
       id="path117-3-5"
       sodipodi:nodetypes="ccccc" /><path
       style="fill:#999999;fill-opacity:1;stroke:none;stroke-width:0.264583;stroke-linejoin:round;stroke-miterlimit:0.5;stroke-dasharray:none;stroke-opacity:1;paint-order:stroke markers fill"
       d="m 3094.3704,1534.5864 10.3902,1.9984 1.4521,1.8042 -8.4105,-1.083 z"
       id="path118-0-7"
       sodipodi:nodetypes="ccccc" /><path
       style="fill:#808080;fill-opacity:1;stroke:none;stroke-width:0.264583;stroke-linejoin:round;stroke-miterlimit:0.5;stroke-dasharray:none;stroke-opacity:1;paint-order:stroke markers fill"
       d="m 3094.3498,1540.5034 3.7317,-3.1727 5.8854,0.7671 z"
       id="path119-9-0"
       sodipodi:nodetypes="cccc" /><path
       style="fill:#333333;fill-opacity:1;stroke:none;stroke-width:0.264583;stroke-linejoin:round;stroke-miterlimit:0.5;stroke-dasharray:none;stroke-opacity:1;paint-order:stroke markers fill"
       d="m 3078.9603,1529.7378 9.0274,0.203 6.5392,4.559 -1.7588,-2.6559 -4.6751,-2.9656 z"
       id="path120-2-8"
       sodipodi:nodetypes="cccccc" /><path
       style="fill:#333333;fill-opacity:1;stroke:none;stroke-width:0.264583;stroke-linejoin:round;stroke-miterlimit:0.5;stroke-dasharray:none;stroke-opacity:1;paint-order:stroke markers fill"
       d="m 3078.7761,1543.0501 0.2536,4.3435 0.2076,9.8653 4.5397,-11.7486 z"
       id="path122-5-1"
       sodipodi:nodetypes="ccccc" /><path
       style="fill:#333333;fill-opacity:1;stroke:none;stroke-width:0.264583;stroke-linejoin:round;stroke-miterlimit:0.5;stroke-dasharray:none;stroke-opacity:1;paint-order:stroke markers fill"
       d="m 3078.7759,1543.0719 2.3281,-2.3102 3.7004,-5.6699 -10.127,5.3219 z"
       id="path122-8-4-9"
       sodipodi:nodetypes="ccccc" /><path
       style="fill:#333333;fill-opacity:1;stroke:none;stroke-width:0.264583;stroke-linejoin:round;stroke-miterlimit:0.5;stroke-dasharray:none;stroke-opacity:1;paint-order:stroke markers fill"
       d="m 3070.147,1554.4694 6.2216,-4.2051 2.5229,-5.4616 -2.977,0.3229 z"
       id="path121-0-9"
       sodipodi:nodetypes="ccccc" /><path
       style="fill:#333333;fill-opacity:1;stroke:none;stroke-width:0.264583;stroke-linejoin:round;stroke-miterlimit:0.5;stroke-dasharray:none;stroke-opacity:1;paint-order:stroke markers fill"
       d="m 3078.99,1529.7253 -12.6673,9.9374 1.9114,0.1492 z"
       id="path123-5-7"
       sodipodi:nodetypes="cccc" /><path
       style="fill:#000000;stroke:none;stroke-width:0.179918;stroke-linejoin:round;stroke-miterlimit:0.5;stroke-dasharray:none;paint-order:stroke markers fill"
       d="m 3084.4563,1533.5067 -1.4921,1.0196 0.7718,1.8446 1.2884,0.024 1.6504,-1.1211 -0.8039,-1.5474 z"
       id="path73-7-3-6-94-8"
       sodipodi:nodetypes="ccccccc" /><path
       style="display:inline;fill:#ffffff;fill-opacity:1;stroke:none;stroke-width:0.179918;stroke-linejoin:round;stroke-miterlimit:0.5;stroke-dasharray:none;paint-order:stroke markers fill"
       d="m 3083.7025,1534.6555 c -0.1508,-0.1335 -0.1158,-0.1332 -0.1753,-0.301 0.1407,-0.204 0.4676,-0.1584 0.7298,-0.2009 0.2622,-0.042 0.8355,-0.044 0.8355,-0.044 0,0 0.026,0.2005 -0.074,0.3327 -0.1,0.1322 -0.3283,0.2569 -0.5737,0.3113 -0.2453,0.054 -0.5915,0.035 -0.7423,-0.098 z"
       id="path82-4-1-6-2"
       sodipodi:nodetypes="zczczzz" /><g
       id="g19"
       transform="matrix(1.3892123,0,0,1.3892123,-1206.3083,-598.34544)"><g
         id="g20"><path
           style="fill:#1a1a1a;fill-opacity:1;stroke:none;stroke-width:0.304964;stroke-linejoin:round;stroke-miterlimit:0.5;stroke-dasharray:none;paint-order:stroke markers fill"
           d="m 3098.9494,1537.3239 -0.964,0.042 -1.1307,0.554 0.5152,0.312 0.7434,-0.527 2.1133,-0.1 z"
           id="path93-36-3-9-5"
           sodipodi:nodetypes="ccccccc" /><path
           style="fill:#176e3f;fill-opacity:1;stroke:none;stroke-width:0.304964;stroke-linejoin:round;stroke-miterlimit:0.5;stroke-dasharray:none;paint-order:stroke markers fill"
           d="m 3100.9775,1538.2547 1.9065,4.6392 0.4848,6.3186 -3.8839,5.4152 1.6555,0.5449 5.0157,-5.891 -0.6134,-6.8489 -2.8485,-4.5542 z"
           id="path95-43-3-2-3"
           sodipodi:nodetypes="ccccccccc" /><path
           style="fill:#24af63;fill-opacity:1;stroke:none;stroke-width:0.304964;stroke-linejoin:round;stroke-miterlimit:0.5;stroke-dasharray:none;paint-order:stroke markers fill"
           d="m 3096.4528,1537.87 -3.3113,7.1083 2.5625,9.8016 5.4208,0.4211 0.4914,-0.5603 -3.6105,-1.9852 -1.9923,-7.339 2.3774,-7.1936 z"
           id="path96-14-3-2-4"
           sodipodi:nodetypes="ccccccccc" /></g></g></g></g></g></svg>
